<?xml version="1.0" encoding="iso-8859-1"?>
<!-- Generator: Adobe Illustrator 17.0.0, SVG Export Plug-In . SVG Version: 6.00 Build 0)  -->
<!DOCTYPE svg PUBLIC "-//W3C//DTD SVG 1.1//EN" "http://www.w3.org/Graphics/SVG/1.1/DTD/svg11.dtd">
<svg version="1.1" id="Layer_1" xmlns="http://www.w3.org/2000/svg" x="0px"
     y="0px"
     width="519.056px" height="96.766px" viewBox="0 0 519.056 96.766" style="enable-background:new 0 0 519.056 96.766;"
     xml:space="preserve">
<g>
	<g>
		<path style="fill:#10375A;" d="M124.212,67.445c-2.254-2.235-4.048-4.894-5.33-7.904c-0.17-0.399-0.328-0.802-0.476-1.209H103.51
			V18.216h-9.617v49.387h30.482C124.321,67.551,124.266,67.499,124.212,67.445z"/>
    <path style="fill:#10375A;" d="M159.692,49.74c0,2.679-0.487,5.161-1.461,7.448s-2.313,4.265-4.017,5.934
			c-1.704,1.669-3.703,2.988-5.995,3.956c-2.293,0.968-4.738,1.453-7.335,1.453c-2.597,0-5.032-0.485-7.304-1.453
			c-2.273-0.968-4.261-2.297-5.965-3.987c-1.704-1.689-3.043-3.678-4.017-5.965c-0.974-2.287-1.461-4.749-1.461-7.386
			c0-2.596,0.496-5.038,1.491-7.325c0.994-2.287,2.343-4.285,4.048-5.996c1.704-1.71,3.692-3.049,5.965-4.018
			c2.272-0.968,4.687-1.452,7.243-1.452c2.596,0,5.041,0.485,7.335,1.452c2.292,0.969,4.291,2.287,5.995,3.956
			c1.704,1.669,3.043,3.657,4.017,5.965C159.205,44.631,159.692,47.103,159.692,49.74z M150.927,49.74
			c0-1.524-0.263-2.946-0.789-4.265c-0.526-1.318-1.244-2.472-2.154-3.461c-0.91-0.989-1.973-1.762-3.186-2.318
			c-1.214-0.556-2.508-0.834-3.883-0.834c-1.375,0-2.671,0.278-3.884,0.834c-1.214,0.556-2.276,1.329-3.186,2.318
			c-0.91,0.989-1.628,2.143-2.154,3.461c-0.526,1.319-0.788,2.741-0.788,4.265c0,1.525,0.262,2.947,0.788,4.265
			c0.526,1.319,1.244,2.472,2.154,3.461c0.91,0.989,1.972,1.762,3.186,2.318c1.213,0.556,2.509,0.834,3.884,0.834
			c1.375,0,2.67-0.278,3.883-0.834c1.213-0.556,2.276-1.329,3.186-2.318c0.91-0.989,1.628-2.142,2.154-3.461
			C150.664,52.687,150.927,51.265,150.927,49.74z"/>
    <path style="fill:#10375A;" d="M196.272,62.226c-1.786,2.061-3.936,3.627-6.452,4.698c-2.516,1.071-5.154,1.607-7.913,1.607
			c-2.556,0-4.97-0.474-7.24-1.422c-2.271-0.947-4.243-2.256-5.914-3.925c-1.672-1.669-2.992-3.656-3.959-5.965
			c-0.967-2.307-1.45-4.8-1.45-7.479c0-2.637,0.483-5.099,1.45-7.387c0.967-2.287,2.277-4.275,3.93-5.965
			c1.652-1.689,3.613-3.018,5.883-3.987c2.27-0.968,4.704-1.452,7.301-1.452c2.678,0,5.224,0.494,7.639,1.483
			c2.414,0.989,4.514,2.494,6.3,4.512l-6.823,5.033c-0.69-0.722-1.47-1.349-2.338-1.881c-1.278-0.782-2.83-1.174-4.656-1.174
			c-1.339,0-2.608,0.289-3.804,0.865c-1.197,0.578-2.252,1.35-3.165,2.318c-0.913,0.969-1.634,2.112-2.161,3.43
			c-0.528,1.319-0.791,2.72-0.791,4.203c0,1.483,0.263,2.885,0.791,4.203c0.527,1.319,1.237,2.463,2.13,3.431
			c0.892,0.969,1.948,1.741,3.165,2.318c1.217,0.578,2.496,0.865,3.835,0.865c1.744,0,3.327-0.422,4.747-1.267
			c1.007-0.599,1.872-1.317,2.594-2.156L196.272,62.226z"/>
    <path style="fill:#10375A;" d="M229.07,67.603h-8.765v-1.916c-1.542,1.072-3.175,1.814-4.9,2.225
			c-1.725,0.411-3.5,0.618-5.326,0.618c-1.704,0-3.247-0.258-4.626-0.773c-1.38-0.515-2.577-1.256-3.591-2.225
			c-1.015-0.968-1.796-2.111-2.343-3.43c-0.548-1.318-0.822-2.782-0.822-4.389c0-2.019,0.436-3.78,1.309-5.285
			c0.872-1.504,2.059-2.76,3.561-3.77c1.501-1.009,3.256-1.762,5.265-2.256s4.169-0.742,6.482-0.742h5.052
			c0-2.102-0.67-3.77-2.009-5.007c-1.339-1.236-3.267-1.854-5.782-1.854c-1.217,0-2.475,0.227-3.774,0.68
			c-0.974,0.34-1.948,0.889-2.922,1.646l-6.147-4.489c1.866-1.813,4.027-3.214,6.482-4.203c2.455-0.989,4.981-1.483,7.578-1.483
			c2.435,0,4.602,0.392,6.503,1.174c1.9,0.783,3.435,1.793,4.604,3.029c1.531,1.567,2.609,3.318,3.234,5.254
			c0.624,1.938,0.937,4.41,0.937,7.417V67.603z M220.305,58.703v-6.614h-4.017c-1.217,0-2.364,0.083-3.439,0.247
			c-1.076,0.165-2.009,0.443-2.8,0.834c-0.791,0.392-1.421,0.896-1.887,1.514c-0.467,0.618-0.7,1.36-0.7,2.225
			c0,1.236,0.477,2.247,1.43,3.029c0.953,0.783,2.181,1.174,3.682,1.174c1.298,0,2.587-0.206,3.865-0.618
			C217.718,60.084,219.006,59.486,220.305,58.703z"/>
    <path style="fill:#FA8D29;" d="M290.722,67.603h-10.389l-3.461-11.25c-0.364-1.236-0.82-2.369-1.366-3.4
			c-0.547-1.03-1.205-1.916-1.973-2.658c-0.769-0.742-1.69-1.318-2.763-1.731c-1.073-0.411-2.338-0.618-3.795-0.618h-3.522v19.656
			h-9.312V18.216l19.199-0.062c2.066,0,3.99,0.361,5.772,1.082c1.782,0.721,3.321,1.721,4.617,2.998
			c1.295,1.278,2.308,2.782,3.038,4.512c0.729,1.731,1.094,3.606,1.094,5.625c0,1.443-0.223,2.843-0.666,4.203
			c-0.443,1.36-1.068,2.617-1.874,3.771c-0.807,1.154-1.763,2.174-2.871,3.06c-1.109,0.887-2.328,1.556-3.658,2.009
			c1.531,0.578,2.781,1.412,3.749,2.503c0.968,1.092,1.734,2.401,2.299,3.925c0.282,0.701,0.544,1.401,0.786,2.101
			c0.241,0.701,0.493,1.432,0.756,2.194c0.263,0.763,0.545,1.587,0.847,2.472c0.302,0.887,0.634,1.865,0.998,2.936
			c0.446,1.36,0.862,2.525,1.248,3.492C289.859,66.007,290.275,66.862,290.722,67.603z M278.427,33.051
			c0-1.153-0.213-2.204-0.639-3.152c-0.426-0.947-1.004-1.771-1.735-2.472c-0.73-0.7-1.593-1.246-2.587-1.638
			c-0.995-0.391-2.06-0.587-3.196-0.587h-6.817v15.391h6.817c1.136,0,2.201-0.175,3.196-0.525c0.994-0.35,1.856-0.855,2.587-1.514
			c0.73-0.659,1.309-1.453,1.735-2.38C278.214,35.245,278.427,34.205,278.427,33.051z"/>
    <path style="fill:#FA8D29;" d="M328.781,49.678c0,0.578-0.03,1.174-0.091,1.793c-0.061,0.618-0.132,1.257-0.213,1.916h-28.12
			c0.324,1.03,0.781,2.009,1.369,2.936c0.588,0.927,1.309,1.731,2.161,2.411c0.852,0.68,1.816,1.216,2.891,1.607
			c1.075,0.392,2.261,0.587,3.561,0.587c1.583,0,3.165-0.278,4.748-0.834c1.112-0.391,2.094-0.878,2.946-1.463l6.549,4.832
			c-2.435,1.854-4.819,3.163-7.152,3.925c-2.334,0.762-4.799,1.144-7.395,1.144c-2.638,0-5.103-0.494-7.395-1.484
			c-2.293-0.989-4.281-2.328-5.965-4.018c-1.684-1.689-3.013-3.678-3.987-5.965c-0.974-2.287-1.461-4.729-1.461-7.325
			s0.487-5.038,1.461-7.325c0.974-2.287,2.313-4.275,4.017-5.965c1.704-1.689,3.692-3.029,5.965-4.018
			c2.272-0.989,4.707-1.483,7.304-1.483c2.475,0,4.848,0.464,7.121,1.391c2.272,0.927,4.281,2.215,6.026,3.863
			c1.744,1.649,3.124,3.616,4.139,5.903C328.273,44.393,328.781,46.918,328.781,49.678z M319.59,46.217
			c-0.69-2.266-1.917-4.089-3.682-5.47c-1.765-1.38-3.764-2.071-5.995-2.071c-2.191,0-4.16,0.691-5.904,2.071
			c-1.745,1.381-2.962,3.205-3.652,5.47H319.59z"/>
    <path style="fill:#FA8D29;"
          d="M364.519,31.876l-13.208,35.789h-8.643L329.4,31.876h9.617l7.973,23.983l7.973-23.983H364.519z"/>
    <path style="fill:#FA8D29;"
          d="M376.996,25.633h-9.13v-9.272h9.13V25.633z M376.874,67.603h-8.886V31.815h8.886V67.603z"/>
    <path style="fill:#FA8D29;" d="M420.637,49.678c0,0.578-0.03,1.174-0.091,1.793c-0.061,0.618-0.132,1.257-0.213,1.916h-28.12
			c0.324,1.03,0.781,2.009,1.369,2.936c0.588,0.927,1.309,1.731,2.161,2.411c0.852,0.68,1.816,1.216,2.891,1.607
			c1.075,0.392,2.261,0.587,3.561,0.587c1.583,0,3.165-0.278,4.748-0.834c1.112-0.391,2.094-0.878,2.945-1.463l6.55,4.831
			c-2.435,1.854-4.819,3.163-7.152,3.925c-2.334,0.762-4.799,1.144-7.395,1.144c-2.638,0-5.103-0.494-7.395-1.484
			c-2.293-0.989-4.281-2.328-5.965-4.018c-1.684-1.689-3.013-3.678-3.987-5.965c-0.974-2.287-1.461-4.729-1.461-7.325
			s0.487-5.038,1.461-7.325c0.974-2.287,2.313-4.275,4.017-5.965c1.704-1.689,3.692-3.029,5.965-4.018
			c2.272-0.989,4.707-1.483,7.304-1.483c2.475,0,4.848,0.464,7.121,1.391c2.272,0.927,4.281,2.215,6.026,3.863
			c1.744,1.649,3.124,3.616,4.139,5.903C420.129,44.393,420.637,46.918,420.637,49.678z M411.446,46.217
			c-0.69-2.266-1.917-4.089-3.682-5.47c-1.765-1.38-3.764-2.071-5.995-2.071c-2.191,0-4.16,0.691-5.904,2.071
			c-1.745,1.381-2.962,3.205-3.652,5.47H411.446z"/>
    <path style="fill:#FA8D29;" d="M474.442,31.815l-11.808,35.851h-7.608l-7-21.325l-7,21.325h-7.608L421.55,31.815h9.252
			l6.634,22.376l6.634-22.376h7.791l6.695,22.376l6.634-22.376H474.442z"/>
    <path style="fill:#FA8D29;" d="M503.596,57.59c0,1.772-0.407,3.348-1.22,4.728c-0.814,1.381-1.872,2.534-3.173,3.461
			c-1.301,0.927-2.766,1.628-4.392,2.102c-1.627,0.473-3.234,0.711-4.819,0.711c-2.685,0-5.155-0.505-7.412-1.514
			c-2.258-1.009-4.24-2.627-5.948-4.852l6.096-4.498c0.857,0.918,1.808,1.666,2.851,2.242c1.379,0.763,2.861,1.143,4.443,1.143
			c1.379,0,2.526-0.257,3.439-0.773c0.913-0.515,1.369-1.287,1.369-2.318c0-1.071-0.65-1.967-1.948-2.689
			c-1.299-0.721-3.125-1.431-5.478-2.133c-1.38-0.412-2.719-0.937-4.017-1.576c-1.299-0.638-2.456-1.422-3.469-2.349
			c-1.015-0.927-1.826-1.988-2.435-3.183c-0.609-1.195-0.913-2.575-0.913-4.142c0-1.731,0.397-3.286,1.19-4.667
			c0.793-1.38,1.83-2.534,3.111-3.461c1.281-0.927,2.735-1.638,4.363-2.133c1.626-0.494,3.273-0.742,4.941-0.742
			c5.368,0,9.761,2.061,13.177,6.181l-6.022,4.47c-0.814-0.858-1.708-1.565-2.682-2.121c-1.299-0.742-2.719-1.113-4.261-1.113
			c-0.528,0-1.086,0.072-1.674,0.216c-0.589,0.145-1.136,0.35-1.643,0.618c-0.508,0.269-0.924,0.618-1.248,1.051
			c-0.325,0.433-0.487,0.917-0.487,1.453c0,0.948,0.618,1.772,1.856,2.472c1.237,0.701,3.013,1.401,5.326,2.102
			c1.501,0.454,2.922,1.03,4.261,1.731c1.339,0.701,2.516,1.514,3.53,2.442c1.014,0.927,1.816,1.978,2.404,3.152
			C503.302,54.778,503.596,56.106,503.596,57.59z"/>
    <rect x="236.755" y="18.216" style="fill:#10375A;" width="8.947" height="49.387"/>
    <g>
			<path style="fill:#10375A;" d="M434.421,96.293h-4.752v-4.826h4.752V96.293z"/>
      <path style="fill:#10375A;" d="M453.397,93.549c-0.911,1.052-2.009,1.851-3.292,2.397c-1.284,0.547-2.63,0.82-4.038,0.82
				c-1.304,0-2.536-0.242-3.695-0.725c-1.159-0.483-2.165-1.151-3.018-2.003c-0.853-0.852-1.527-1.866-2.02-3.044
				c-0.494-1.177-0.74-2.449-0.74-3.816c0-1.345,0.247-2.602,0.74-3.769c0.493-1.167,1.162-2.181,2.005-3.044
				c0.843-0.862,1.844-1.54,3.002-2.034c1.158-0.494,2.4-0.741,3.726-0.741c1.367,0,2.666,0.252,3.898,0.757
				c1.232,0.505,2.303,1.272,3.215,2.302l-3.482,2.568c-0.352-0.368-0.75-0.688-1.193-0.96c-0.652-0.399-1.444-0.599-2.376-0.599
				c-0.683,0-1.331,0.147-1.941,0.442c-0.611,0.295-1.149,0.689-1.615,1.183c-0.466,0.494-0.834,1.078-1.103,1.751
				c-0.269,0.673-0.404,1.388-0.404,2.145c0,0.757,0.134,1.472,0.404,2.145c0.269,0.673,0.631,1.257,1.087,1.751
				c0.455,0.494,0.994,0.889,1.615,1.183c0.621,0.295,1.273,0.442,1.957,0.442c0.89,0,1.698-0.215,2.423-0.647
				c0.506-0.301,0.942-0.661,1.307-1.081L453.397,93.549z"/>
      <path style="fill:#10375A;" d="M473.833,87.177c0,1.367-0.248,2.634-0.745,3.801c-0.497,1.167-1.18,2.176-2.05,3.028
				c-0.87,0.852-1.89,1.525-3.059,2.019c-1.17,0.494-2.418,0.741-3.743,0.741c-1.325,0-2.568-0.247-3.727-0.741
				c-1.16-0.494-2.174-1.172-3.044-2.034c-0.87-0.862-1.553-1.877-2.05-3.044s-0.745-2.423-0.745-3.769
				c0-1.325,0.253-2.571,0.761-3.738c0.507-1.167,1.196-2.187,2.065-3.059c0.87-0.872,1.884-1.556,3.044-2.05
				c1.159-0.494,2.392-0.741,3.696-0.741c1.325,0,2.573,0.247,3.743,0.741c1.169,0.494,2.19,1.167,3.059,2.019
				c0.87,0.852,1.553,1.866,2.05,3.044C473.585,84.57,473.833,85.832,473.833,87.177z M469.361,87.177
				c0-0.778-0.134-1.503-0.403-2.176c-0.268-0.673-0.635-1.262-1.099-1.766c-0.464-0.505-1.006-0.899-1.626-1.183
				s-1.28-0.426-1.981-0.426c-0.702,0-1.363,0.142-1.982,0.426s-1.161,0.678-1.626,1.183c-0.464,0.505-0.831,1.094-1.099,1.766
				c-0.268,0.673-0.402,1.399-0.402,2.176c0,0.778,0.134,1.504,0.402,2.176c0.268,0.673,0.635,1.262,1.099,1.766
				c0.464,0.505,1.006,0.899,1.626,1.183c0.619,0.284,1.28,0.426,1.982,0.426c0.702,0,1.362-0.142,1.981-0.426
				c0.619-0.284,1.161-0.678,1.626-1.183c0.464-0.505,0.831-1.093,1.099-1.766C469.226,88.681,469.361,87.956,469.361,87.177z"/>
      <path style="fill:#10375A;" d="M502.904,96.293h-4.472V85.411c0-1.282-0.306-2.255-0.916-2.918
				c-0.611-0.662-1.362-0.994-2.252-0.994c-0.683,0-1.331,0.11-1.941,0.331c-0.611,0.221-1.206,0.584-1.786,1.088
				c0.186,0.736,0.28,1.567,0.28,2.492v10.882h-4.472V85.411c0-1.282-0.306-2.255-0.916-2.918c-0.611-0.662-1.351-0.994-2.221-0.994
				c-0.683,0-1.284,0.121-1.801,0.363c-0.518,0.242-1.056,0.626-1.615,1.151v13.279h-4.472V78.062h4.472l0.005,1.356
				c0.56-0.547,1.218-0.988,1.974-1.325c0.757-0.336,1.529-0.505,2.317-0.505c0.871,0,1.746,0.2,2.627,0.599
				c0.881,0.4,1.653,0.978,2.317,1.735c0.933-0.841,1.876-1.44,2.829-1.798c0.954-0.357,2-0.536,3.141-0.536
				c0.933,0,1.819,0.142,2.659,0.426c0.84,0.284,1.57,0.736,2.192,1.356c0.622,0.62,1.119,1.409,1.492,2.366
				c0.373,0.957,0.56,2.108,0.56,3.454V96.293z"/>
		</g>
    <g>
			<path style="fill:#10375A;" d="M507.249,25.425v-6.262h-2.303v-0.838h5.542v0.838h-2.313v6.262H507.249z"/>
      <path style="fill:#10375A;" d="M511.995,25.425v-7.1h1.393l1.655,5.027c0.153,0.468,0.264,0.818,0.334,1.051
				c0.079-0.258,0.203-0.638,0.372-1.138l1.674-4.94h1.245v7.1h-0.892v-5.942l-2.032,5.942h-0.835l-2.022-6.044v6.044H511.995z"/>
		</g>
	</g>
  <g>
		<path style="fill:#FA8D29;" d="M54.185,34.192H25.298l23.37,16.979l-14.75,45.4c0.104,0.115,0.176,0.195,0.176,0.195
			S67.52,60.224,67.52,33.517c0-7.49-2.464-14.404-6.625-19.978L54.185,34.192z"/>
    <path style="fill:#10375A;" d="M41.298,53.565L21.613,39.264L6.002,27.922h19.296H49.63l5.302-16.32l1.077-3.314
			C50.141,3.186,42.481,0.09,34.094,0.09c-18.461,0-33.427,14.966-33.427,33.427c0,20.241,19.181,46.103,28.478,57.453
			L41.298,53.565z"/>
	</g>
</g>
</svg>
