<?xml version="1.0" encoding="utf-8"?>
<!-- Generator: Adobe Illustrator 17.0.0, SVG Export Plug-In . SVG Version: 6.00 Build 0)  -->
<!DOCTYPE svg PUBLIC "-//W3C//DTD SVG 1.1//EN" "http://www.w3.org/Graphics/SVG/1.1/DTD/svg11.dtd">
<svg version="1.1" id="Layer_1" xmlns="http://www.w3.org/2000/svg" xmlns:xlink="http://www.w3.org/1999/xlink" x="0px" y="0px"
	 width="149.611px" height="216.567px" viewBox="0 0 149.611 216.567" style="enable-background:new 0 0 149.611 216.567;"
	 xml:space="preserve">
<g>
	<defs>
		<rect id="SVGID_1_" width="1160.395" height="216.567"/>
	</defs>
	<clipPath id="SVGID_2_">
		<use xlink:href="#SVGID_1_"  style="overflow:visible;"/>
	</clipPath>
	<path style="clip-path:url(#SVGID_2_);fill:#012639;" d="M276.759,164.216c-5.051-5.005-9.068-10.964-11.94-17.707
		c-0.38-0.893-0.735-1.796-1.066-2.709h-33.37V53.936h-21.542V164.57h68.283C277.003,164.452,276.879,164.336,276.759,164.216"/>
	<path style="clip-path:url(#SVGID_2_);fill:#012639;" d="M356.24,124.553c0,6.002-1.091,11.562-3.273,16.685
		c-2.18,5.124-5.18,9.554-8.998,13.293c-3.818,3.738-8.297,6.694-13.43,8.862c-5.137,2.168-10.615,3.254-16.431,3.254
		c-5.817,0-11.272-1.086-16.361-3.254c-5.092-2.168-9.545-5.145-13.363-8.931c-3.817-3.784-6.817-8.239-8.999-13.363
		c-2.181-5.123-3.272-10.637-3.272-16.546c0-5.815,1.112-11.285,3.341-16.408c2.226-5.124,5.249-9.6,9.066-13.432
		c3.818-3.829,8.272-6.83,13.363-9c5.089-2.168,10.498-3.254,16.225-3.254c5.816,0,11.294,1.086,16.431,3.254
		c5.133,2.17,9.612,5.123,13.43,8.862c3.818,3.739,6.818,8.193,8.998,13.362C355.149,113.108,356.24,118.646,356.24,124.553
		 M336.606,124.553c0-3.414-0.59-6.599-1.769-9.554c-1.177-2.954-2.786-5.539-4.825-7.755c-2.039-2.215-4.419-3.946-7.136-5.192
		c-2.719-1.246-5.619-1.869-8.7-1.869c-3.08,0-5.982,0.623-8.7,1.869c-2.719,1.246-5.099,2.977-7.138,5.192
		c-2.039,2.216-3.647,4.801-4.825,7.755c-1.178,2.955-1.765,6.14-1.765,9.554c0,3.417,0.587,6.601,1.765,9.554
		c1.178,2.956,2.786,5.539,4.825,7.754c2.039,2.216,4.419,3.946,7.138,5.193c2.718,1.246,5.62,1.869,8.7,1.869
		c3.081,0,5.981-0.623,8.7-1.869c2.717-1.247,5.097-2.977,7.136-5.193c2.039-2.215,3.648-4.798,4.825-7.754
		C336.016,131.154,336.606,127.97,336.606,124.553"/>
	<path style="clip-path:url(#SVGID_2_);fill:#012639;" d="M438.185,152.524c-4.001,4.617-8.818,8.124-14.453,10.523
		c-5.637,2.4-11.545,3.601-17.726,3.601c-5.726,0-11.134-1.062-16.218-3.185c-5.088-2.123-9.504-5.054-13.249-8.793
		c-3.746-3.738-6.703-8.191-8.87-13.362c-2.167-5.168-3.249-10.752-3.249-16.754c0-5.907,1.082-11.424,3.249-16.547
		c2.167-5.123,5.101-9.576,8.803-13.362c3.701-3.784,8.094-6.761,13.179-8.931c5.086-2.168,10.537-3.254,16.355-3.254
		c6,0,11.703,1.108,17.113,3.323c5.406,2.216,10.11,5.586,14.112,10.108l-15.284,11.276c-1.547-1.618-3.292-3.022-5.237-4.214
		c-2.863-1.752-6.34-2.631-10.43-2.631c-3,0-5.842,0.647-8.523,1.939c-2.681,1.293-5.045,3.024-7.09,5.192
		c-2.045,2.17-3.66,4.732-4.84,7.685c-1.183,2.956-1.773,6.093-1.773,9.416c0,3.323,0.59,6.462,1.773,9.415
		c1.18,2.956,2.772,5.517,4.772,7.685c1.998,2.17,4.363,3.901,7.09,5.193c2.727,1.294,5.591,1.938,8.591,1.938
		c3.907,0,7.452-0.945,10.634-2.838c2.257-1.342,4.195-2.951,5.811-4.829L438.185,152.524z"/>
	<path style="clip-path:url(#SVGID_2_);fill:#012639;" d="M511.656,164.57h-19.634v-4.293c-3.456,2.402-7.114,4.064-10.977,4.985
		c-3.864,0.922-7.839,1.385-11.93,1.385c-3.818,0-7.274-0.578-10.363-1.731c-3.09-1.153-5.773-2.814-8.043-4.984
		c-2.274-2.168-4.023-4.73-5.25-7.685c-1.227-2.953-1.841-6.231-1.841-9.831c0-4.522,0.975-8.469,2.931-11.84
		c1.954-3.368,4.613-6.183,7.977-8.446c3.362-2.261,7.295-3.946,11.794-5.054c4.499-1.108,9.34-1.661,14.521-1.661h11.317
		c0-4.708-1.499-8.447-4.499-11.216c-3-2.77-7.319-4.154-12.953-4.154c-2.728,0-5.546,0.508-8.455,1.523
		c-2.182,0.762-4.363,1.991-6.544,3.687l-13.771-10.057c4.18-4.061,9.02-7.2,14.521-9.415c5.499-2.215,11.158-3.323,16.975-3.323
		c5.454,0,10.31,0.878,14.569,2.63c4.256,1.755,7.695,4.016,10.313,6.785c3.43,3.509,5.844,7.432,7.243,11.77
		c1.398,4.34,2.099,9.879,2.099,16.616V164.57z M492.022,144.631v-14.816h-8.999c-2.728,0-5.297,0.186-7.704,0.554
		c-2.409,0.37-4.5,0.993-6.272,1.869c-1.772,0.878-3.183,2.008-4.227,3.393c-1.046,1.384-1.568,3.046-1.568,4.984
		c0,2.769,1.068,5.033,3.205,6.785c2.134,1.755,4.884,2.631,8.249,2.631c2.908,0,5.795-0.461,8.658-1.384
		C486.227,147.725,489.112,146.385,492.022,144.631"/>
	<path style="clip-path:url(#SVGID_2_);fill:#FA8D29;" d="M649.765,164.57h-23.272l-7.753-25.2c-0.817-2.769-1.836-5.307-3.06-7.616
		c-1.225-2.307-2.699-4.293-4.421-5.954c-1.723-1.662-3.785-2.953-6.188-3.877c-2.404-0.922-5.238-1.385-8.501-1.385h-7.889v44.032
		H567.82V53.936l43.009-0.139c4.627,0,8.937,0.809,12.93,2.424c3.992,1.615,7.44,3.855,10.343,6.715
		c2.902,2.862,5.171,6.231,6.805,10.108c1.631,3.877,2.45,8.079,2.45,12.601c0,3.232-0.499,6.369-1.491,9.415
		c-0.994,3.046-2.393,5.864-4.2,8.447c-1.806,2.585-3.95,4.87-6.431,6.854c-2.485,1.986-5.216,3.485-8.194,4.5
		c3.43,1.294,6.229,3.163,8.398,5.608c2.169,2.447,3.884,5.379,5.149,8.793c0.631,1.571,1.219,3.139,1.76,4.707
		c0.541,1.571,1.105,3.209,1.693,4.916c0.589,1.709,1.222,3.554,1.899,5.539c0.678,1.986,1.421,4.178,2.235,6.577
		c0.999,3.046,1.93,5.655,2.795,7.823C647.832,160.994,648.764,162.909,649.765,164.57 M622.223,87.168
		c0-2.583-0.478-4.937-1.432-7.062c-0.955-2.123-2.25-3.968-3.885-5.539c-1.637-1.568-3.57-2.791-5.795-3.669
		c-2.229-0.876-4.616-1.315-7.159-1.315h-15.271v34.478h15.271c2.543,0,4.93-0.392,7.159-1.177c2.225-0.783,4.158-1.915,5.795-3.393
		c1.635-1.475,2.93-3.254,3.885-5.33C621.745,92.084,622.223,89.753,622.223,87.168"/>
	<path style="clip-path:url(#SVGID_2_);fill:#FA8D29;" d="M735.023,124.415c0,1.294-0.068,2.631-0.205,4.016
		c-0.136,1.384-0.296,2.816-0.477,4.292h-62.993c0.727,2.308,1.749,4.5,3.068,6.577c1.317,2.077,2.931,3.877,4.84,5.401
		c1.909,1.522,4.068,2.724,6.477,3.6c2.407,0.878,5.066,1.315,7.976,1.315c3.545,0,7.09-0.623,10.635-1.87
		c2.492-0.876,4.692-1.967,6.599-3.276l14.672,10.823c-5.454,4.154-10.795,7.086-16.021,8.793
		c-5.228,1.707-10.75,2.561-16.566,2.561c-5.91,0-11.433-1.107-16.567-3.323c-5.136-2.215-9.591-5.214-13.362-9
		c-3.773-3.784-6.749-8.239-8.931-13.362c-2.181-5.123-3.272-10.593-3.272-16.408c0-5.816,1.091-11.285,3.272-16.409
		c2.182-5.123,5.181-9.575,8.999-13.362c3.818-3.784,8.271-6.785,13.362-9c5.09-2.215,10.544-3.323,16.362-3.323
		c5.544,0,10.861,1.038,15.953,3.116c5.09,2.076,9.589,4.962,13.498,8.653c3.907,3.694,6.999,8.101,9.273,13.224
		C733.885,112.576,735.023,118.232,735.023,124.415 M714.434,116.661c-1.547-5.076-4.295-9.16-8.249-12.254
		c-3.954-3.092-8.433-4.639-13.43-4.639c-4.909,0-9.319,1.547-13.226,4.639c-3.909,3.094-6.636,7.178-8.181,12.254H714.434z"/>
	<polygon style="clip-path:url(#SVGID_2_);fill:#FA8D29;" points="815.082,84.536 785.494,164.708 766.133,164.708 736.409,84.536 
		757.952,84.536 775.813,138.261 793.675,84.536 	"/>
	<path style="clip-path:url(#SVGID_2_);fill:#FA8D29;" d="M843.031,70.551H822.58v-20.77h20.451V70.551z M842.759,164.57h-19.906
		V84.398h19.906V164.57z"/>
	<path style="clip-path:url(#SVGID_2_);fill:#FA8D29;" d="M940.794,124.415c0,1.294-0.068,2.631-0.205,4.016
		c-0.136,1.384-0.296,2.816-0.478,4.292h-62.992c0.726,2.308,1.748,4.5,3.067,6.577c1.317,2.077,2.932,3.877,4.84,5.401
		c1.909,1.522,4.068,2.724,6.477,3.6c2.407,0.878,5.066,1.315,7.976,1.315c3.545,0,7.091-0.623,10.636-1.87
		c2.491-0.876,4.691-1.967,6.598-3.276l14.673,10.823c-5.454,4.154-10.795,7.086-16.022,8.793
		c-5.228,1.707-10.75,2.561-16.566,2.561c-5.91,0-11.432-1.107-16.567-3.323c-5.136-2.215-9.59-5.214-13.362-9
		c-3.772-3.784-6.749-8.239-8.931-13.362c-2.181-5.123-3.272-10.593-3.272-16.408c0-5.816,1.091-11.285,3.272-16.409
		c2.182-5.123,5.182-9.575,8.999-13.362c3.819-3.784,8.271-6.785,13.363-9c5.09-2.215,10.544-3.323,16.361-3.323
		c5.544,0,10.861,1.038,15.953,3.116c5.09,2.076,9.589,4.962,13.499,8.653c3.907,3.694,6.998,8.101,9.272,13.224
		C939.655,112.576,940.794,118.232,940.794,124.415 M920.205,116.661c-1.547-5.076-4.296-9.16-8.249-12.254
		c-3.954-3.092-8.433-4.639-13.431-4.639c-4.908,0-9.318,1.547-13.225,4.639c-3.909,3.094-6.637,7.178-8.181,12.254H920.205z"/>
	<polygon style="clip-path:url(#SVGID_2_);fill:#FA8D29;" points="1061.325,84.398 1034.874,164.709 1017.83,164.709 
		1002.15,116.938 986.47,164.709 969.426,164.709 942.839,84.398 963.563,84.398 978.426,134.523 993.287,84.398 1010.74,84.398 
		1025.738,134.523 1040.6,84.398 	"/>
	<path style="clip-path:url(#SVGID_2_);fill:#FA8D29;" d="M1126.635,142.139c0,3.97-0.911,7.501-2.732,10.592
		c-1.825,3.095-4.194,5.678-7.108,7.754c-2.915,2.077-6.195,3.648-9.839,4.708s-7.243,1.592-10.795,1.592
		c-6.013,0-11.548-1.13-16.604-3.392c-5.058-2.26-9.497-5.884-13.324-10.869l13.656-10.076c1.921,2.057,4.05,3.731,6.388,5.022
		c3.088,1.709,6.408,2.561,9.953,2.561c3.089,0,5.658-0.575,7.704-1.73c2.045-1.154,3.067-2.885,3.067-5.193
		c0-2.399-1.455-4.407-4.363-6.023c-2.91-1.614-7.001-3.207-12.272-4.777c-3.09-0.922-6.09-2.099-8.999-3.531
		c-2.91-1.43-5.501-3.185-7.771-5.262c-2.274-2.077-4.091-4.453-5.454-7.131c-1.363-2.676-2.045-5.768-2.045-9.277
		c0-3.878,0.889-7.361,2.665-10.455c1.777-3.091,4.099-5.677,6.969-7.754c2.869-2.077,6.127-3.669,9.772-4.777
		c3.643-1.107,7.333-1.661,11.07-1.661c12.024,0,21.865,4.617,29.517,13.846l-13.49,10.014c-1.824-1.921-3.826-3.506-6.008-4.752
		c-2.91-1.661-6.091-2.492-9.544-2.492c-1.183,0-2.434,0.162-3.75,0.484c-1.318,0.325-2.546,0.786-3.681,1.385
		c-1.138,0.601-2.069,1.385-2.795,2.354c-0.729,0.969-1.091,2.055-1.091,3.254c0,2.125,1.384,3.97,4.159,5.539
		c2.771,1.57,6.749,3.139,11.931,4.708c3.361,1.016,6.543,2.308,9.543,3.877c3,1.57,5.635,3.392,7.909,5.469
		c2.271,2.077,4.067,4.43,5.385,7.061C1125.975,135.839,1126.635,138.816,1126.635,142.139"/>
	<rect x="528.873" y="53.936" style="clip-path:url(#SVGID_2_);fill:#012639;" width="20.043" height="110.634"/>
	<polygon style="clip-path:url(#SVGID_2_);fill:#012639;" points="1134.818,70.084 1134.818,56.056 1129.658,56.056 1129.658,54.18 
		1142.072,54.18 1142.072,56.056 1136.89,56.056 1136.89,70.084 	"/>
	<path style="clip-path:url(#SVGID_2_);fill:#012639;" d="M1145.449,70.084V54.18h3.119l3.707,11.261
		c0.342,1.048,0.592,1.833,0.748,2.354c0.178-0.579,0.456-1.428,0.833-2.549l3.75-11.066h2.788v15.904h-1.997V56.772l-4.552,13.312
		h-1.869l-4.529-13.54v13.54H1145.449z"/>
	<path style="clip-path:url(#SVGID_2_);fill:#FA8D29;" d="M119.889,76.392H55.178l52.351,38.035L74.487,216.13
		c0.232,0.258,0.394,0.437,0.394,0.437s74.881-81.859,74.881-141.687c0-16.779-5.52-32.267-14.841-44.752L119.889,76.392z"/>
	<path style="clip-path:url(#SVGID_2_);fill:#012639;" d="M91.019,119.792L46.923,87.755L11.952,62.348h43.226h54.507l11.878-36.559
		l2.413-7.424C110.828,6.935,93.669,0,74.881,0C33.525,0-0.001,33.525-0.001,74.881c0,45.342,42.969,103.279,63.796,128.703
		L91.019,119.792z"/>
</g>
</svg>
